#!OML:ASF F:\VICON\USERDATA\INSTALL\rory3\rory3.ASF
:FULLY-SPECIFIED
:DEGREES
90
root -0.16007428210606428 17.36230553958616 21.02082932511083 3.2475928624702353 -1.4949719539966113 -3.625061326506083
lfemur -29.483431987335607 5.752070122947384 -15.671396988827702
ltibia 95.07062164861264
lfoot 0.7889842536956249 -6.021619229055863
ltoes -10.227475050846818
rfemur -3.8525767525808448 4.984744242717683 32.31761573826235
rtibia 67.20917892697223
rfoot -5.581125602051821 -11.059222118013551
rtoes -0.5980957008801728
lowerback 15.52229014340858 1.7127421950911161 2.450705931193758
upperback -0.797378240985249 2.87841708865269 1.7641780670603695
thorax -10.797595512996232 1.3901099633989542 0.7664079060666814
lowerneck -21.349385631739352 -3.737571998040868 -1.7267944147839263
upperneck 12.846018676071326 -4.814960021646515 1.8671465627724588
head 7.556985441169322 -2.2184935910953585 0.1468301827938533
lclavicle 7.933867047537048e-17 -3.510693723877653e-16
lhumerus -45.76371326296398 -17.15192440992333 98.58325012138901
lradius 101.779248241861
lwrist 33.12158370561997
lhand -24.4748601692109 2.7549006429079315
lfingers 7.12502
lthumb 1.8075028694014958 32.08389641133905
rclavicle 7.933867063275255e-17 -3.5106937227046797e-16
rhumerus -49.48897393604837 8.187555103264152 -94.95360764556317
rradius 107.54116109390095
rwrist -9.3529614912648
rhand -16.628640228267166 39.35928329557358
rfingers 7.12502
rthumb 9.393741410227724 9.546800531032524
91
root -0.1477991592522182 17.408949115038954 21.30058004115672 3.3418278601431135 -1.391591769790023 -3.6339251691235788
lfemur -30.48060513336108 5.645307495779201 -16.01163537767446
ltibia 93.77026310929935
lfoot 0.8153591011034302 -5.913302101523823
ltoes -10.690077829182716
rfemur -3.4330650958310613 4.853203033386564 32.16718967478587
rtibia 68.50497621427746
rfoot -5.0866863714966835 -10.83324738262542
rtoes -1.2416427618375891
lowerback 15.409627115597697 1.7517339762481763 2.5135249312825207
upperback -0.8922716701209659 2.9406145965874924 1.692865298548576
thorax -10.770647588262062 1.423326748714418 0.6153968844909703
lowerneck -21.280731444220944 -3.77565387746883 -1.745783083679319
upperneck 12.98225348711137 -4.875549565090967 1.8769023495012807
head 7.611332220481087 -2.237505177361013 0.1410710142057685
lclavicle 7.933867047690654e-17 -3.5106937238716047e-16
lhumerus -46.390595547762324 -16.987332158394008 98.64926784666872
lradius 101.9328478313808
lwrist 33.22372840051184
lhand -24.437145358265393 2.812837535075918
lfingers 7.12502
lthumb 1.858920575350381 32.13532274260902
rclavicle 7.933867063286899e-17 -3.510693722709797e-16
rhumerus -49.42437730211916 8.336892447105331 -94.89836830647201
rradius 107.51276299698551
rwrist -9.398254645595067
rhand -16.656962613239077 39.53489009424025
rfingers 7.12502
rthumb 9.33330192352459 9.736312366100659
92
root -0.1376170362632405 17.459649173930448 21.520520366881634 3.425074359477137 -1.2917580494373204 -3.6444605955894547
lfemur -31.264764764811602 5.481434416347783 -16.369586592142436
ltibia 92.29182132015353
lfoot 0.5724533156085518 -5.96311048329942
ltoes -12.222831767849557
rfemur -3.085225537546613 4.714590564047344 32.00172963594098
rtibia 69.86665519056294
rfoot -4.760083803875005 -10.728862600338976
rtoes -2.463952048490352
lowerback 15.299631442116452 1.7897982507792707 2.5727811214354235
upperback -0.960204566368883 3.0004909571278855 1.611216996720513
thorax -10.709787908610762 1.452483229363439 0.4604115952558
lowerneck -21.27473804007361 -3.8168240058477587 -1.7543829417803993
upperneck 13.145272831657683 -4.942668585056832 1.8778061399012773
head 7.685132350216108 -2.262485137027375 0.12953048703105713
lclavicle 7.933867047788872e-17 -3.510693723869398e-16
lhumerus -46.963325365676994 -16.860404196294112 98.70251302412584
lradius 102.05102040263866
lwrist 33.354370439314906
lhand -24.49136925751056 2.7528930801120186
lfingers 7.12502
lthumb 1.9358247129395898 32.15102473688239
rclavicle 7.933867063402545e-17 -3.5106937227066075e-16
rhumerus -49.45115568266074 8.422520395542215 -94.83060472728333
rradius 107.51889744987258
rwrist -9.656120148716694
rhand -16.678571583839158 39.73009609254539
rfingers 7.12502
rthumb 9.293334460571003 9.992310232748006
93
root -0.12465019766257253 17.515714098362675 21.781764032740135 3.5034591804626136 -1.1975466322454034 -3.6458245653349697
lfemur -31.83510507477731 5.270235384375506 -16.740791307563924
ltibia 90.64532752372399
lfoot 0.3409427363656731 -6.010565743936006
ltoes -13.434245488085514
rfemur -2.832216156950466 4.5706751424201295 31.817933256361098
rtibia 71.28544572195182
rfoot -4.517663706055173 -10.810445344387904
rtoes -2.288410132539714
lowerback 15.178792333018732 1.8245561560169525 2.6307433382572007
upperback -1.0418210005747002 3.0545973852848802 1.5229510480871604
thorax -10.657662233202467 1.4713252765089586 0.26161269432630885
lowerneck -21.24275419913977 -3.861413118728334 -1.7606041234644254
upperneck 13.300488241904697 -5.011694464580329 1.8760434363282623
head 7.748658758304618 -2.291277290037171 0.11798569324989228
lclavicle 7.93386704798333e-17 -3.5106937238593053e-16
lhumerus -47.52921094655823 -16.708812377660127 98.75458141366205
lradius 102.13278981902597
lwrist 33.48385395559099
lhand -24.44655335984078 2.7998231636760007
lfingers 7.12502
lthumb 2.128335809175457 32.111944868985695
rclavicle 7.933867063432724e-17 -3.5106937227095115e-16
rhumerus -49.549833906058375 8.470989269119244 -94.7499848847188
rradius 107.5536928479597
rwrist -9.790658779949412
rhand -16.691313159375856 39.9827353465808
rfingers 7.12502
rthumb 9.230704927946409 10.281900468876197
